<svg width="32" height="32" viewBox="0 0 32 32" fill="none" xmlns="http://www.w3.org/2000/svg">
<path d="M0 1.42222C0 0.636751 0.636751 0 1.42222 0H30.5778C31.3633 0 32 0.636751 32 1.42222V30.5778C32 31.3633 31.3633 32 30.5778 32H1.42222C0.636751 32 0 31.3633 0 30.5778V1.42222Z" fill="#1D9E75"/>
<path d="M0 0H32V6.64889H0V0Z" fill="white" fill-opacity="0.5"/>
<path d="M2.84444 13.1911C2.84444 12.7984 3.16282 12.48 3.55556 12.48H28.48C28.8727 12.48 29.1911 12.7984 29.1911 13.1911C29.1911 13.5838 28.8727 13.9022 28.48 13.9022H3.55556C3.16282 13.9022 2.84444 13.5838 2.84444 13.1911Z" fill="black"/>
<path d="M2.84444 17.28C2.84444 16.8873 3.16282 16.5689 3.55556 16.5689H28.48C28.8727 16.5689 29.1911 16.8873 29.1911 17.28C29.1911 17.6727 28.8727 17.9911 28.48 17.9911H3.55556C3.16282 17.9911 2.84444 17.6727 2.84444 17.28Z" fill="black"/>
<path d="M2.84444 21.3689C2.84444 20.9762 3.16282 20.6578 3.55556 20.6578H28.48C28.8727 20.6578 29.1911 20.9762 29.1911 21.3689C29.1911 21.7616 28.8727 22.08 28.48 22.08H3.55556C3.16282 22.08 2.84444 21.7616 2.84444 21.3689Z" fill="black"/>
<path d="M2.84444 25.4578C2.84444 25.065 3.16282 24.7467 3.55556 24.7467H28.48C28.8727 24.7467 29.1911 25.065 29.1911 25.4578C29.1911 25.8505 28.8727 26.1689 28.48 26.1689H3.55556C3.16282 26.1689 2.84444 25.8505 2.84444 25.4578Z" fill="black"/>
</svg>
